<?xml version="1.0" encoding="UTF-8" standalone="no"?>
<!-- Created with Inkscape (http://www.inkscape.org/) -->

<svg
   xmlns:dc="http://purl.org/dc/elements/1.1/"
   xmlns:cc="http://creativecommons.org/ns#"
   xmlns:rdf="http://www.w3.org/1999/02/22-rdf-syntax-ns#"
   xmlns:svg="http://www.w3.org/2000/svg"
   xmlns="http://www.w3.org/2000/svg"
   xmlns:sodipodi="http://sodipodi.sourceforge.net/DTD/sodipodi-0.dtd"
   xmlns:inkscape="http://www.inkscape.org/namespaces/inkscape"
   width="744.09448819"
   height="1052.3622047"
   id="svg2"
   version="1.1"
   inkscape:version="0.48.2 r9819"
   sodipodi:docname="icon.svg">
  <defs
     id="defs4" />
  <sodipodi:namedview
     id="base"
     pagecolor="#ffffff"
     bordercolor="#666666"
     borderopacity="1.0"
     inkscape:pageopacity="0.0"
     inkscape:pageshadow="2"
     inkscape:zoom="0.25"
     inkscape:cx="-605.67517"
     inkscape:cy="940.63704"
     inkscape:document-units="px"
     inkscape:current-layer="layer1"
     showgrid="false"
     inkscape:window-width="1600"
     inkscape:window-height="850"
     inkscape:window-x="-8"
     inkscape:window-y="-8"
     inkscape:window-maximized="1" />
  <metadata
     id="metadata7">
    <rdf:RDF>
      <cc:Work
         rdf:about="">
        <dc:format>image/svg+xml</dc:format>
        <dc:type
           rdf:resource="http://purl.org/dc/dcmitype/StillImage" />
        <dc:title></dc:title>
      </cc:Work>
    </rdf:RDF>
  </metadata>
  <g
     inkscape:label="Layer 1"
     inkscape:groupmode="layer"
     id="layer1">
    <path
       style="fill:#75507b;fill-opacity:1;display:inline"
       d="m 608.28572,600.29073 c 0,-1.5659 0.66667,-2 3.07143,-2 3.06399,0 5.92857,-1.8982 5.92857,-3.9285 0,-0.6032 -1.96667,-1.0715 -4.5,-1.0715 l -4.5,0 0,-4 c 0,-2.8889 0.41667,-4 1.5,-4 0.83333,0 1.5,-0.8889 1.5,-2 0,-1.7037 0.66667,-2 4.5,-2 3.33333,0 4.5,-0.3889 4.5,-1.5 0,-1.1666 1.33333,-1.5 6,-1.5 4.66667,0 6,0.3334 6,1.5 0,1.1111 1.16667,1.5 4.5,1.5 3.83333,0 4.5,0.2963 4.5,2 0,1.1111 0.66667,2 1.5,2 1.08333,0 1.5,1.1111 1.5,4 l 0,4 -4.5,0 c -3.33333,0 -4.5,0.3889 -4.5,1.5 0,0.825 0.675,1.5 1.5,1.5 0.825,0 1.5,0.45 1.5,1 0,0.55 1.35,1 3,1 2.33333,0 3,0.4445 3,2 0,1.5556 -0.66667,2 -3,2 -2.33333,0 -3,-0.4444 -3,-2 0,-1.5555 -0.66667,-2 -3,-2 -1.65,0 -3,-0.45 -3,-1 0,-0.55 -0.675,-1 -1.5,-1 -0.825,0 -1.5,0.45 -1.5,1 0,0.55 -1.35,1 -3,1 -1.65,0 -3,-0.45 -3,-1 0,-0.55 -0.675,-1 -1.5,-1 -0.825,0 -1.5,0.45 -1.5,1 0,0.55 -1.125,1 -2.5,1 -1.83333,0 -2.5,0.5334 -2.5,2 0,1.6191 -0.66667,2 -3.5,2 -2.83333,0 -3.5,-0.3809 -3.5,-2 z m 21,-5.5 c 0,-1 -1,-1.5 -3,-1.5 -2,0 -3,0.5 -3,1.5 0,1 1,1.5 3,1.5 2,0 3,-0.5 3,-1.5 z m -6,-6 c 0,-1 -1,-1.5 -3,-1.5 -2,0 -3,0.5 -3,1.5 0,1 1,1.5 3,1.5 2,0 3,-0.5 3,-1.5 z m 12,0 c 0,-1 -1,-1.5 -3,-1.5 -2,0 -3,0.5 -3,1.5 0,1 1,1.5 3,1.5 2,0 3,-0.5 3,-1.5 z"
       id="path3803-7"
       inkscape:connector-curvature="0" />
    <path
       style="fill:#729fcf;fill-opacity:1;display:inline"
       d="m 579.28572,547.29073 c 0,-0.825 0.675,-1.5 1.5,-1.5 0.825,0 1.5,-0.675 1.5,-1.5 0,-0.825 0.675,-1.5 1.5,-1.5 0.825,0 1.5,0.675 1.5,1.5 0,0.825 0.675,1.5 1.5,1.5 0.825,0 1.5,-0.675 1.5,-1.5 0,-1 1,-1.5 3,-1.5 2,0 3,0.5 3,1.5 0,0.825 0.675,1.5 1.5,1.5 0.825,0 1.5,-0.675 1.5,-1.5 0,-0.825 0.675,-1.5 1.5,-1.5 0.825,0 1.5,0.675 1.5,1.5 0,0.825 0.675,1.5 1.5,1.5 0.825,0 1.5,0.675 1.5,1.5 0,0.825 -0.675,1.5 -1.5,1.5 -0.825,0 -1.5,-0.675 -1.5,-1.5 0,-0.825 -0.675,-1.5 -1.5,-1.5 -0.825,0 -1.5,0.675 -1.5,1.5 0,0.825 -0.675,1.5 -1.5,1.5 -0.825,0 -1.5,-0.675 -1.5,-1.5 0,-1 -1,-1.5 -3,-1.5 -2,0 -3,0.5 -3,1.5 0,0.825 -0.675,1.5 -1.5,1.5 -0.825,0 -1.5,-0.675 -1.5,-1.5 0,-0.825 -0.675,-1.5 -1.5,-1.5 -0.825,0 -1.5,0.675 -1.5,1.5 0,0.825 -0.675,1.5 -1.5,1.5 -0.825,0 -1.5,-0.675 -1.5,-1.5 z m 6,-6 c 0,-1 -1,-1.5 -3,-1.5 -2.66667,0 -3,-0.3333 -3,-3 0,-2 0.5,-3 1.5,-3 0.825,0 1.5,-0.675 1.5,-1.5 0,-0.825 0.675,-1.5 1.5,-1.5 0.825,0 1.5,-0.675 1.5,-1.5 0,-0.825 0.675,-1.5 1.5,-1.5 0.825,0 1.5,-0.675 1.5,-1.5 0,-1 1,-1.5 3,-1.5 2,0 3,0.5 3,1.5 0,0.825 0.675,1.5 1.5,1.5 0.825,0 1.5,0.675 1.5,1.5 0,0.825 0.675,1.5 1.5,1.5 0.825,0 1.5,0.675 1.5,1.5 0,0.825 0.675,1.5 1.5,1.5 1,0 1.5,1 1.5,3 0,2.6667 -0.33333,3 -3,3 -2,0 -3,0.5 -3,1.5 0,0.825 -0.675,1.5 -1.5,1.5 -0.825,0 -1.5,-0.675 -1.5,-1.5 0,-1 -1,-1.5 -3,-1.5 -2,0 -3,0.5 -3,1.5 0,0.825 -0.675,1.5 -1.5,1.5 -0.825,0 -1.5,-0.675 -1.5,-1.5 z m 3,-6 c 0,-0.825 -0.675,-1.5 -1.5,-1.5 -0.825,0 -1.5,0.675 -1.5,1.5 0,0.825 0.675,1.5 1.5,1.5 0.825,0 1.5,-0.675 1.5,-1.5 z m 9,0 c 0,-0.825 -0.675,-1.5 -1.5,-1.5 -0.825,0 -1.5,0.675 -1.5,1.5 0,0.825 0.675,1.5 1.5,1.5 0.825,0 1.5,-0.675 1.5,-1.5 z"
       id="path3790-1"
       inkscape:connector-curvature="0" />
    <path
       style="fill:#729fcf;fill-opacity:1;display:inline"
       d="m 564.28572,506.29073 c 0,-0.825 0.675,-1.5 1.5,-1.5 0.825,0 1.5,-0.675 1.5,-1.5 0,-0.825 -0.675,-1.5 -1.5,-1.5 -1.16667,0 -1.5,-1.3333 -1.5,-6 0,-4.6666 0.33333,-6 1.5,-6 1,0 1.5,1 1.5,3 0,2.3334 0.44444,3 2,3 1.7037,0 2,-0.6666 2,-4.5 0,-2.475 0.45,-4.5 1,-4.5 0.55,0 1,-0.675 1,-1.5 0,-0.825 0.675,-1.5 1.5,-1.5 0.825,0 1.5,0.675 1.5,1.5 0,0.9334 0.94444,1.5 2.5,1.5 1.55556,0 2.5,-0.5666 2.5,-1.5 0,-0.825 0.675,-1.5 1.5,-1.5 0.825,0 1.5,0.675 1.5,1.5 0,0.825 0.675,1.5 1.5,1.5 0.825,0 1.5,0.675 1.5,1.5 0,0.825 0.675,1.5 1.5,1.5 1,0 1.5,1 1.5,3 0,2.3334 0.44444,3 2,3 1.55556,0 2,-0.6666 2,-3 0,-2 0.5,-3 1.5,-3 1.16667,0 1.5,1.3334 1.5,6 0,4.6667 -0.33333,6 -1.5,6 -0.825,0 -1.5,0.675 -1.5,1.5 0,0.825 0.675,1.5 1.5,1.5 0.825,0 1.5,0.675 1.5,1.5 0,0.825 -0.675,1.5 -1.5,1.5 -0.825,0 -1.5,-0.675 -1.5,-1.5 0,-0.825 -0.675,-1.5 -1.5,-1.5 -0.825,0 -1.5,-0.675 -1.5,-1.5 0,-1 -1,-1.5 -3,-1.5 -2,0 -3,0.5 -3,1.5 0,0.825 -0.675,1.5 -1.5,1.5 -0.825,0 -1.5,-0.675 -1.5,-1.5 0,-0.825 -0.675,-1.5 -1.5,-1.5 -0.825,0 -1.5,0.675 -1.5,1.5 0,0.825 -0.675,1.5 -1.5,1.5 -0.825,0 -1.5,-0.675 -1.5,-1.5 0,-1 -1,-1.5 -3,-1.5 -2,0 -3,0.5 -3,1.5 0,0.825 -0.675,1.5 -1.5,1.5 -0.825,0 -1.5,0.675 -1.5,1.5 0,0.825 -0.675,1.5 -1.5,1.5 -0.825,0 -1.5,-0.675 -1.5,-1.5 z m 13,-12 c 0,-0.825 -0.675,-1.5 -1.5,-1.5 -0.825,0 -1.5,0.675 -1.5,1.5 0,0.825 0.675,1.5 1.5,1.5 0.825,0 1.5,-0.675 1.5,-1.5 z m 10,0 c 0,-0.825 -0.675,-1.5 -1.5,-1.5 -0.825,0 -1.5,0.675 -1.5,1.5 0,0.825 0.675,1.5 1.5,1.5 0.825,0 1.5,-0.675 1.5,-1.5 z"
       id="path3816-4"
       inkscape:connector-curvature="0" />
    <g
       id="g3017"
       transform="matrix(6.0952381,0,0,6.0952381,-2245.1905,-3739.274)"
       inkscape:export-filename="C:\Users\Computer\Documents\Zeeshan\Brickaders\icons\android\icons\icon_48.png"
       inkscape:export-xdpi="8.4375"
       inkscape:export-ydpi="8.4375">
      <rect
         y="582.36218"
         x="191"
         height="84"
         width="84"
         id="rect3011"
         style="fill:#2e3436;fill-opacity:1;fill-rule:nonzero;stroke:none" />
      <path
         inkscape:connector-curvature="0"
         id="path3829-0"
         d="m 223.57143,622.44787 c 0,-1.84372 0.8381,-2.51428 3.14286,-2.51428 2.30475,0 3.14285,0.67056 3.14285,2.51428 0,1.84385 -0.8381,2.51429 -3.14285,2.51429 -2.30476,0 -3.14286,-0.67044 -3.14286,-2.51429 z m 12.57143,0 c 0,-1.84372 0.8381,-2.51428 3.14285,-2.51428 2.30476,0 3.14286,0.67056 3.14286,2.51428 0,1.84385 -0.8381,2.51429 -3.14286,2.51429 -2.30475,0 -3.14285,-0.67044 -3.14285,-2.51429 z M 211,614.27644 c 0,-4.19043 0.48889,-5.65714 1.88571,-5.65714 1.03715,0 1.88572,-0.56571 1.88572,-1.25714 0,-0.69143 1.13143,-1.25714 2.51428,-1.25714 1.39683,0 2.51429,-0.83802 2.51429,-1.88572 0,-1.03714 0.84857,-1.88571 1.88571,-1.88571 1.03715,0 1.88572,-0.84857 1.88572,-1.88572 0,-1.03714 -0.84857,-1.88571 -1.88572,-1.88571 -1.03714,0 -1.88571,-0.84857 -1.88571,-1.88572 0,-1.03714 0.84857,-1.88571 1.88571,-1.88571 1.03715,0 1.88572,0.84857 1.88572,1.88571 0,1.03715 0.84857,1.88572 1.88571,1.88572 1.03715,0 1.88572,0.84857 1.88572,1.88571 0,1.39681 1.46667,1.88572 5.65714,1.88572 4.19047,0 5.65714,-0.48891 5.65714,-1.88572 0,-1.03714 0.84857,-1.88571 1.88572,-1.88571 1.03714,0 1.88571,-0.84857 1.88571,-1.88572 0,-1.03714 0.84857,-1.88571 1.88572,-1.88571 1.03714,0 1.88571,0.84857 1.88571,1.88571 0,1.03715 -0.84857,1.88572 -1.88571,1.88572 -1.03715,0 -1.88572,0.84857 -1.88572,1.88571 0,1.03715 0.84857,1.88572 1.88572,1.88572 1.03714,0 1.88571,0.84857 1.88571,1.88571 0,1.0477 1.11746,1.88572 2.51429,1.88572 1.38285,0 2.51428,0.56571 2.51428,1.25714 0,0.69143 0.84857,1.25714 1.88572,1.25714 1.39682,0 1.88571,1.46671 1.88571,5.65714 0,4.19056 -0.48889,5.65715 -1.88571,5.65715 -1.17333,0 -1.88572,-1.18725 -1.88572,-3.14286 0,-1.95549 -0.71238,-3.14286 -1.88571,-3.14286 -1.17333,0 -1.88572,1.18737 -1.88572,3.14286 0,2.30485 -0.67047,3.14286 -2.51428,3.14286 -1.38286,0 -2.51429,-0.56572 -2.51429,-1.25715 0,-0.72637 -3.98096,-1.25714 -9.42857,-1.25714 -5.44761,0 -9.42857,0.53077 -9.42857,1.25714 0,0.69143 -1.13143,1.25715 -2.51429,1.25715 -1.84381,0 -2.51428,-0.83801 -2.51428,-3.14286 0,-1.95549 -0.71239,-3.14286 -1.88572,-3.14286 -1.17333,0 -1.88571,1.18737 -1.88571,3.14286 0,1.95561 -0.71239,3.14286 -1.88572,3.14286 -1.39682,0 -1.88571,-1.46659 -1.88571,-5.65715 z m 16.34286,-6.28571 c 0,-1.03714 -0.84857,-1.88571 -1.88572,-1.88571 -1.03714,0 -1.88571,0.84857 -1.88571,1.88571 0,1.03714 0.84857,1.88571 1.88571,1.88571 1.03715,0 1.88572,-0.84857 1.88572,-1.88571 z m 15.08571,0 c 0,-1.03714 -0.84857,-1.88571 -1.88571,-1.88571 -1.03715,0 -1.88572,0.84857 -1.88572,1.88571 0,1.03714 0.84857,1.88571 1.88572,1.88571 1.03714,0 1.88571,-0.84857 1.88571,-1.88571 z"
         style="fill:#888a85;fill-opacity:1;display:inline" />
      <rect
         y="651.36218"
         x="214"
         height="4"
         width="38"
         id="rect3013"
         style="fill:#3465a4;fill-opacity:1;fill-rule:nonzero;stroke:none" />
      <path
         transform="matrix(0.71428571,0,0,0.71428571,235.14286,156.20406)"
         d="m 4,679.36218 c 0,3.866 -3.13400675,7 -7,7 -3.8659932,0 -7,-3.134 -7,-7 0,-3.86599 3.1340068,-7 7,-7 3.86599325,0 7,3.13401 7,7 z"
         sodipodi:ry="7"
         sodipodi:rx="7"
         sodipodi:cy="679.36218"
         sodipodi:cx="-3"
         id="path3015"
         style="fill:#fcaf3e;fill-opacity:1;fill-rule:nonzero;stroke:none"
         sodipodi:type="arc" />
    </g>
  </g>
</svg>
